<svg version="1.1" xmlns="http://www.w3.org/2000/svg" xmlns:xlink="http://www.w3.org/1999/xlink" x="0px" y="0px" width="768" height="96" viewBox="0, 0, 640, 80">
  <g id="Background">
    <rect x="0" y="0" width="640" height="80" fill="#FFFFFF"/>
  </g>
  <g id="Layer 1">
    <g>
      <path d="M307.263,53.213 L301.877,53.213 L301.877,51.878 L314.12,51.878 L314.12,53.213 L308.732,53.213 L308.732,67.64 L307.263,67.64 z" fill="#636463"/>
      <path d="M321.533,61.629 C321.533,59.803 319.953,58.29 317.971,58.29 C315.055,58.29 314.231,61.094 314.231,61.629 z M322.557,65.703 C321.511,67.262 319.93,67.906 318.105,67.906 C314.966,67.906 312.896,65.659 312.896,62.475 C312.896,59.402 315.032,57.088 318.038,57.088 C321.2,57.088 322.869,59.514 322.869,61.896 L322.869,62.832 L314.231,62.832 C314.231,63.944 315.011,66.705 318.127,66.705 C319.486,66.705 320.91,65.992 321.577,64.88 z" fill="#636463"/>
      <path d="M334.242,66.126 C333.239,67.329 331.927,67.906 330.456,67.906 C327.295,67.906 325.046,65.636 325.046,62.497 C325.046,59.358 327.295,57.087 330.456,57.087 C331.949,57.087 333.285,57.733 334.286,58.869 L333.217,59.669 C332.439,58.825 331.526,58.289 330.456,58.289 C327.941,58.289 326.383,60.181 326.383,62.497 C326.383,64.811 327.941,66.706 330.456,66.706 C331.57,66.706 332.527,66.126 333.217,65.28 z" fill="#636463"/>
      <path d="M336.107,50.809 L337.442,50.809 L337.442,59.158 L337.488,59.158 C338.022,58.023 339.335,57.088 341.005,57.088 C344.212,57.088 344.924,59.27 344.924,61.518 L344.924,67.639 L343.589,67.639 L343.589,61.585 C343.589,59.914 343.12,58.29 341.005,58.29 C339.024,58.29 337.442,59.669 337.442,62.497 L337.442,67.639 L336.107,67.639 z" fill="#636463"/>
      <path d="M348.259,60.249 C348.259,59.492 348.148,57.889 348.148,57.355 L349.483,57.355 C349.505,58.111 349.527,58.957 349.573,59.157 L349.639,59.157 C350.174,58.022 351.487,57.088 353.156,57.088 C356.363,57.088 357.076,59.27 357.076,61.518 L357.076,67.64 L355.739,67.64 L355.739,61.584 C355.739,59.914 355.272,58.289 353.156,58.289 C351.176,58.289 349.594,59.669 349.594,62.497 L349.594,67.64 L348.259,67.64 z" fill="#636463"/>
      <path d="M365.241,66.705 C367.756,66.705 369.315,64.812 369.315,62.498 C369.315,60.182 367.756,58.289 365.241,58.289 C362.726,58.289 361.167,60.182 361.167,62.498 C361.167,64.812 362.726,66.705 365.241,66.705 M365.241,57.088 C368.403,57.088 370.652,59.359 370.652,62.498 C370.652,65.637 368.403,67.907 365.241,67.907 C362.08,67.907 359.831,65.637 359.831,62.498 C359.831,59.359 362.08,57.088 365.241,57.088" fill="#636463"/>
      <path d="M373.629,50.809 L374.964,50.809 L374.964,67.639 L373.629,67.639 z" fill="#636463"/>
      <path d="M383.356,66.705 C385.872,66.705 387.43,64.812 387.43,62.498 C387.43,60.182 385.872,58.289 383.356,58.289 C380.841,58.289 379.282,60.182 379.282,62.498 C379.282,64.812 380.841,66.705 383.356,66.705 M383.356,57.088 C386.518,57.088 388.766,59.359 388.766,62.498 C388.766,65.637 386.518,67.907 383.356,67.907 C380.195,67.907 377.947,65.637 377.947,62.498 C377.947,59.359 380.195,57.088 383.356,57.088" fill="#636463"/>
      <path d="M396.487,58.289 C394.239,58.289 392.413,60.116 392.413,62.363 C392.413,64.611 394.239,66.437 396.487,66.437 C398.736,66.437 400.561,64.611 400.561,62.363 C400.561,60.116 398.736,58.289 396.487,58.289 M401.852,66.971 C401.852,72.093 398.469,72.983 396.376,72.983 C394.305,72.983 392.325,72.18 391.277,70.824 L392.325,69.844 C393.26,71.157 394.773,71.78 396.376,71.78 C400.45,71.78 400.517,68.218 400.517,67.062 L400.517,65.636 L400.473,65.636 C399.693,66.861 398.336,67.64 396.576,67.64 C393.549,67.64 391.077,65.258 391.077,62.363 C391.077,59.469 393.549,57.088 396.576,57.088 C398.336,57.088 399.693,57.867 400.473,59.091 L400.517,59.091 L400.517,57.355 L401.852,57.355 z" fill="#636463"/>
      <path d="M407.792,70.824 C407.281,72.137 406.434,72.983 404.965,72.983 C404.521,72.983 404.075,72.894 403.65,72.782 L403.785,71.536 C404.162,71.647 404.586,71.78 404.986,71.78 C405.966,71.78 406.389,70.867 406.701,70.067 L407.637,67.685 L403.45,57.354 L404.943,57.354 L408.349,66.014 L411.666,57.354 L413.091,57.354 z" fill="#636463"/>
      <path d="M418.495,60.36 L423.639,60.36 L423.639,55.218 L424.706,55.218 L424.706,60.36 L429.85,60.36 L429.85,61.428 L424.706,61.428 L424.706,66.571 L423.639,66.571 L423.639,61.428 L418.495,61.428 z" fill="#636463"/>
      <path d="M435.076,51.878 L444.716,51.878 L444.716,53.213 L436.544,53.213 L436.544,58.824 L444.204,58.824 L444.204,60.159 L436.544,60.159 L436.544,66.304 L445.071,66.304 L445.071,67.64 L435.076,67.64 z" fill="#636463"/>
      <path d="M452.504,58.289 C449.988,58.289 448.43,60.181 448.43,62.497 C448.43,64.811 449.988,66.706 452.504,66.706 C454.931,66.706 456.8,64.811 456.8,62.497 C456.8,60.181 454.931,58.289 452.504,58.289 M456.667,65.836 L456.621,65.836 C455.798,67.262 454.039,67.906 452.504,67.906 C449.342,67.906 447.094,65.636 447.094,62.497 C447.094,59.358 449.342,57.088 452.504,57.088 C454.039,57.088 455.798,57.733 456.621,59.157 L456.667,59.157 L456.667,50.809 L458.002,50.809 L458.002,67.64 L456.667,67.64 z" fill="#636463"/>
      <path d="M469.753,64.746 C469.753,65.502 469.864,67.106 469.864,67.64 L468.529,67.64 C468.507,66.883 468.483,66.036 468.439,65.837 L468.372,65.837 C467.838,66.972 466.525,67.907 464.856,67.907 C461.648,67.907 460.936,65.725 460.936,63.477 L460.936,57.354 L462.272,57.354 L462.272,63.41 C462.272,65.081 462.74,66.705 464.856,66.705 C466.836,66.705 468.418,65.324 468.418,62.498 L468.418,57.354 L469.753,57.354 z" fill="#636463"/>
      <path d="M481.813,66.126 C480.813,67.329 479.5,67.906 478.028,67.906 C474.868,67.906 472.619,65.636 472.619,62.497 C472.619,59.358 474.868,57.087 478.028,57.087 C479.521,57.087 480.857,57.733 481.859,58.869 L480.789,59.669 C480.012,58.825 479.099,58.289 478.028,58.289 C475.512,58.289 473.956,60.181 473.956,62.497 C473.956,64.811 475.512,66.706 478.028,66.706 C479.142,66.706 480.101,66.126 480.789,65.28 z" fill="#636463"/>
      <path d="M489.002,62.474 C486.775,62.474 484.548,63.031 484.548,64.79 C484.548,66.059 485.774,66.705 486.887,66.705 C489.736,66.705 490.471,64.879 490.471,63.166 L490.471,62.474 z M491.673,63.321 C491.673,65.324 491.718,66.461 491.873,67.64 L490.627,67.64 C490.538,67.128 490.494,66.55 490.494,65.97 L490.449,65.97 C489.693,67.284 488.579,67.907 486.843,67.907 C485.085,67.907 483.213,67.038 483.213,64.857 C483.213,61.719 486.887,61.407 488.913,61.407 L490.471,61.407 L490.471,60.783 C490.471,59.001 489.225,58.289 487.578,58.289 C486.375,58.289 485.351,58.669 484.438,59.448 L483.661,58.534 C484.639,57.6 486.242,57.089 487.578,57.089 C490.072,57.089 491.673,58.2 491.673,60.805 z" fill="#636463"/>
      <path d="M500.04,58.557 L497.102,58.557 L497.102,65.258 C497.102,66.17 497.638,66.705 498.526,66.705 C499.038,66.705 499.574,66.55 500.04,66.349 L500.152,67.55 C499.661,67.729 498.928,67.907 498.416,67.907 C496.501,67.907 495.766,66.726 495.766,65.258 L495.766,58.557 L493.539,58.557 L493.539,57.354 L495.766,57.354 L495.766,54.394 L497.102,54.394 L497.102,57.354 L500.04,57.354 z" fill="#636463"/>
      <path d="M502.419,57.354 L503.757,57.354 L503.757,67.639 L502.419,67.639 z M503.088,52.279 C503.644,52.279 504.09,52.724 504.09,53.28 C504.09,53.838 503.644,54.283 503.088,54.283 C502.532,54.283 502.086,53.838 502.086,53.28 C502.086,52.724 502.532,52.279 503.088,52.279" fill="#636463"/>
      <path d="M512.146,66.705 C514.662,66.705 516.22,64.812 516.22,62.498 C516.22,60.182 514.662,58.289 512.146,58.289 C509.63,58.289 508.072,60.182 508.072,62.498 C508.072,64.812 509.63,66.705 512.146,66.705 M512.146,57.088 C515.308,57.088 517.556,59.359 517.556,62.498 C517.556,65.637 515.308,67.907 512.146,67.907 C508.985,67.907 506.737,65.637 506.737,62.498 C506.737,59.359 508.985,57.088 512.146,57.088" fill="#636463"/>
      <path d="M520.313,60.249 C520.313,59.492 520.202,57.889 520.202,57.355 L521.537,57.355 C521.559,58.111 521.58,58.957 521.627,59.157 L521.692,59.157 C522.228,58.022 523.539,57.088 525.21,57.088 C528.415,57.088 529.127,59.27 529.127,61.518 L529.127,67.64 L527.792,67.64 L527.792,61.584 C527.792,59.914 527.326,58.289 525.21,58.289 C523.227,58.289 521.648,59.669 521.648,62.497 L521.648,67.64 L520.313,67.64 z" fill="#636463"/>
      <path d="M535.979,61.963 L547.334,61.963 L547.334,63.031 L535.979,63.031 z M535.979,58.756 L547.334,58.756 L547.334,59.825 L535.979,59.825 z" fill="#636463"/>
      <path d="M556.032,58.824 L559.371,58.824 C561.04,58.824 562.711,58.112 562.711,56.041 C562.711,54.015 560.972,53.213 559.282,53.213 L556.032,53.213 z M554.562,51.878 L559.103,51.878 C561.33,51.878 564.18,52.746 564.18,56.041 C564.18,58.891 561.909,60.16 559.437,60.16 L556.032,60.16 L556.032,67.64 L554.562,67.64 z" fill="#636463"/>
      <path d="M571.566,66.705 C574.08,66.705 575.64,64.812 575.64,62.498 C575.64,60.182 574.08,58.289 571.566,58.289 C569.05,58.289 567.492,60.182 567.492,62.498 C567.492,64.812 569.05,66.705 571.566,66.705 M571.566,57.088 C574.728,57.088 576.976,59.359 576.976,62.498 C576.976,65.637 574.728,67.907 571.566,67.907 C568.405,67.907 566.157,65.637 566.157,62.498 C566.157,59.359 568.405,57.088 571.566,57.088" fill="#636463"/>
      <path d="M584.764,58.557 L581.825,58.557 L581.825,65.258 C581.825,66.17 582.361,66.705 583.249,66.705 C583.761,66.705 584.297,66.55 584.764,66.349 L584.875,67.55 C584.384,67.729 583.651,67.907 583.139,67.907 C581.224,67.907 580.489,66.726 580.489,65.258 L580.489,58.557 L578.263,58.557 L578.263,57.354 L580.489,57.354 L580.489,54.394 L581.825,54.394 L581.825,57.354 L584.764,57.354 z" fill="#636463"/>
      <path d="M594.981,61.629 C594.981,59.803 593.399,58.29 591.419,58.29 C588.502,58.29 587.679,61.094 587.679,61.629 z M596.005,65.703 C594.959,67.262 593.377,67.906 591.552,67.906 C588.412,67.906 586.343,65.659 586.343,62.475 C586.343,59.402 588.48,57.088 591.487,57.088 C594.647,57.088 596.316,59.514 596.316,61.896 L596.316,62.832 L587.679,62.832 C587.679,63.944 588.459,66.705 591.573,66.705 C592.933,66.705 594.358,65.992 595.024,64.88 z" fill="#636463"/>
      <path d="M599.072,60.249 C599.072,59.492 598.961,57.889 598.961,57.355 L600.296,57.355 C600.318,58.111 600.342,58.957 600.386,59.157 L600.453,59.157 C600.987,58.022 602.3,57.088 603.969,57.088 C607.177,57.088 607.889,59.27 607.889,61.518 L607.889,67.64 L606.553,67.64 L606.553,61.584 C606.553,59.914 606.085,58.289 603.969,58.289 C601.989,58.289 600.407,59.669 600.407,62.497 L600.407,67.64 L599.072,67.64 z" fill="#636463"/>
      <path d="M616.256,58.557 L613.317,58.557 L613.317,65.258 C613.317,66.17 613.851,66.705 614.741,66.705 C615.253,66.705 615.787,66.55 616.256,66.349 L616.367,67.55 C615.876,67.729 615.143,67.907 614.631,67.907 C612.716,67.907 611.982,66.726 611.982,65.258 L611.982,58.557 L609.755,58.557 L609.755,57.354 L611.982,57.354 L611.982,54.394 L613.317,54.394 L613.317,57.354 L616.256,57.354 z" fill="#636463"/>
      <path d="M618.634,57.354 L619.972,57.354 L619.972,67.639 L618.634,67.639 z M619.303,52.279 C619.859,52.279 620.306,52.724 620.306,53.28 C620.306,53.838 619.859,54.283 619.303,54.283 C618.748,54.283 618.301,53.838 618.301,53.28 C618.301,52.724 618.748,52.279 619.303,52.279" fill="#636463"/>
      <path d="M628.852,62.474 C626.625,62.474 624.398,63.031 624.398,64.79 C624.398,66.059 625.623,66.705 626.736,66.705 C629.586,66.705 630.321,64.879 630.321,63.166 L630.321,62.474 z M631.522,63.321 C631.522,65.324 631.568,66.461 631.723,67.64 L630.476,67.64 C630.387,67.128 630.344,66.55 630.344,65.97 L630.298,65.97 C629.543,67.284 628.429,67.907 626.693,67.907 C624.935,67.907 623.063,67.038 623.063,64.857 C623.063,61.719 626.736,61.407 628.763,61.407 L630.321,61.407 L630.321,60.783 C630.321,59.001 629.074,58.289 627.427,58.289 C626.224,58.289 625.201,58.669 624.288,59.448 L623.51,58.534 C624.488,57.6 626.092,57.089 627.427,57.089 C629.921,57.089 631.522,58.2 631.522,60.805 z" fill="#636463"/>
      <path d="M635.082,50.809 L636.417,50.809 L636.417,67.639 L635.082,67.639 z" fill="#636463"/>
      <path d="M116.449,24.501 L108.27,33.517 L108.406,33.517 L108.406,67.75 L108.27,67.75 L116.449,76.749 L124.338,67.75 L124.363,67.75 L124.367,33.517 L124.263,33.517 z" fill="#FFFFFE"/>
      <path d="M4.278,33.62 L26.854,33.62 L26.854,39.108 L10.345,39.108 L10.345,47.482 L25.988,47.482 L25.988,52.969 L10.345,52.969 L10.345,62.209 L27.719,62.209 L27.719,67.698 L4.278,67.698 z" fill="#002B52"/>
      <path d="M42.011,49.888 L30.652,33.621 L38.306,33.621 L46.342,46.231 L54.286,33.621 L61.647,33.621 L50.483,49.888 L62.849,67.697 L55.15,67.697 L46.153,53.307 L37.197,67.697 L29.881,67.697 z" fill="#002B52"/>
      <path d="M90.043,41.61 C87.542,38.963 85.231,38.239 82.873,38.239 C75.844,38.239 71.176,43.634 71.176,50.418 C71.176,57.686 75.844,63.077 82.873,63.077 C85.614,63.077 88.261,61.825 90.524,58.938 L95.53,62.499 C92.448,66.734 87.828,68.564 82.823,68.564 C72.33,68.564 64.823,61.441 64.823,50.803 C64.823,39.878 72.33,32.755 82.823,32.755 C87.443,32.755 91.389,34.246 94.759,38.144 z" fill="#002B52"/>
      <path d="M158.017,54.703 L152.772,40.841 L147.429,54.703 z M150.316,33.62 L155.564,33.62 L170.244,67.698 L163.311,67.698 L160.135,59.9 L145.359,59.9 L142.278,67.698 L135.493,67.698 z" fill="#002B52"/>
      <path d="M174.042,33.62 L182.078,33.62 L198.587,58.938 L198.685,59.035 L198.587,59.035 L198.685,58.938 L198.685,33.62 L204.748,33.62 L204.748,67.698 L197.048,67.698 L180.201,41.563 L180.105,41.563 L180.105,67.698 L174.042,67.698 z" fill="#002B52"/>
      <path d="M242.624,65.195 C238.484,67.408 233.771,68.564 228.521,68.564 C218.029,68.564 210.521,61.441 210.521,50.802 C210.521,39.877 218.029,32.755 228.521,32.755 C233.722,32.755 238.388,33.86 241.951,37.038 L237.474,41.563 C235.309,39.445 231.987,38.24 228.571,38.24 C221.542,38.24 216.874,43.634 216.874,50.418 C216.874,57.686 221.542,63.077 228.571,63.077 C231.652,63.077 234.445,62.498 236.561,61.296 L236.561,53.258 L229.581,53.258 L229.581,47.771 L242.624,47.771 z" fill="#002B52"/>
      <path d="M249.791,33.62 L272.368,33.62 L272.368,39.108 L255.856,39.108 L255.856,47.482 L271.5,47.482 L271.5,52.969 L255.856,52.969 L255.856,62.209 L273.234,62.209 L273.234,67.698 L249.791,67.698 z" fill="#002B52"/>
      <path d="M116.161,77.015 L125.231,68.003 L118.942,68.003 L118.942,32.623 L125.231,32.623 L116.163,23.628 L107.096,32.623 L113.383,32.623 L113.382,68.003 L107.096,68.003 z" fill="#E37623"/>
      <path d="M139.396,49.919 L130.383,40.85 L130.383,47.139 L102.269,47.139 L102.269,40.85 L93.276,49.918 L102.269,58.985 L102.269,52.698 L130.383,52.699 L130.383,58.985 z" fill="#E37623"/>
      <path d="M102.292,33.619 L108.357,33.619 L108.357,47.192 L124.291,47.192 L124.291,33.619 L130.354,33.619 L130.354,67.697 L124.291,67.697 L124.291,52.678 L108.357,52.678 L108.357,67.697 L102.292,67.697 z" fill="#FFFFFE"/>
      <path d="M102.792,34.119 L108.857,34.119 L108.857,47.692 L124.791,47.692 L124.791,34.119 L130.854,34.119 L130.854,68.197 L124.791,68.197 L124.791,53.178 L108.857,53.178 L108.857,68.197 L102.792,68.197 L102.792,34.119 z" fill-opacity="0" stroke="#FFFFFE" stroke-width="0.5"/>
      <path d="M290.479,65.493 L296.309,59.615 L290.479,53.737 z" fill="#E37623"/>
      <path d="M1.417,3.562 L4.825,3.562 L8.111,16.159 L8.159,16.159 L12.087,3.562 L15.149,3.562 L19.003,16.159 L19.052,16.159 L22.484,3.562 L25.646,3.562 L20.559,21.049 L17.594,21.049 L13.544,7.735 L13.496,7.735 L9.444,21.049 L6.579,21.049 z" fill="#002B52"/>
      <path d="M37.759,18.677 C41.389,18.677 43.787,15.91 43.787,12.183 C43.787,8.699 41.389,5.932 37.759,5.932 C34.153,5.932 31.758,8.699 31.758,12.183 C31.758,15.91 34.153,18.677 37.759,18.677 M37.733,3.117 C43.193,3.019 47.046,6.674 47.046,12.28 C47.046,17.739 43.193,21.395 37.733,21.492 C32.35,21.492 28.497,17.836 28.497,12.379 C28.497,6.773 32.35,3.117 37.733,3.117" fill="#002B52"/>
      <path d="M57.382,10.971 C59.137,10.971 61.187,10.824 61.187,8.552 C61.187,6.477 59.261,6.23 57.654,6.23 L54.963,6.23 L54.963,10.971 z M51.849,3.563 L57.926,3.563 C61.286,3.563 64.447,4.649 64.447,8.575 C64.447,11.094 62.99,12.947 60.397,13.317 L65.04,21.048 L61.286,21.048 L57.235,13.638 L54.963,13.638 L54.963,21.048 L51.849,21.048 z" fill="#002B52"/>
      <path d="M69.253,3.562 L72.366,3.562 L72.366,18.234 L79.799,18.234 L79.799,21.049 L69.253,21.049 z" fill="#002B52"/>
      <path d="M89.351,18.234 C93.252,18.234 96.438,16.554 96.438,12.305 C96.438,8.057 93.674,6.378 89.869,6.378 L87.029,6.378 L87.029,18.234 z M83.917,3.563 L90.808,3.563 C95.401,3.563 99.699,6.378 99.699,12.305 C99.699,18.282 94.636,21.048 90.437,21.048 L83.917,21.048 z" fill="#002B52"/>
      <path d="M135.566,7.663 C134.283,6.303 133.097,5.933 131.885,5.933 C128.281,5.933 125.884,8.699 125.884,12.183 C125.884,15.91 128.281,18.677 131.885,18.677 C133.295,18.677 134.653,18.036 135.814,16.553 L138.382,18.381 C136.801,20.555 134.431,21.493 131.862,21.493 C126.476,21.493 122.623,17.837 122.623,12.379 C122.623,6.773 126.476,3.117 131.862,3.117 C134.232,3.117 136.26,3.883 137.987,5.885 z" fill="#002B52"/>
      <path d="M150.647,18.677 C154.278,18.677 156.675,15.91 156.675,12.183 C156.675,8.699 154.278,5.932 150.647,5.932 C147.042,5.932 144.645,8.699 144.645,12.183 C144.645,15.91 147.042,18.677 150.647,18.677 M150.622,3.117 C156.081,3.019 159.935,6.674 159.935,12.28 C159.935,17.739 156.081,21.395 150.622,21.492 C145.238,21.492 141.385,17.836 141.385,12.379 C141.385,6.773 145.238,3.117 150.622,3.117" fill="#002B52"/>
      <path d="M164.812,3.562 L169.554,3.562 L174.222,15.812 L178.941,3.562 L183.633,3.562 L183.633,21.049 L180.669,21.049 L180.669,6.525 L180.62,6.525 L175.31,21.049 L173.136,21.049 L167.826,6.525 L167.776,6.525 L167.776,21.049 L164.812,21.049 z" fill="#002B52"/>
      <path d="M194.439,11.144 C196.216,11.144 198.512,11.046 198.512,8.675 C198.512,6.526 196.464,6.229 194.783,6.229 L192.56,6.229 L192.56,11.144 z M189.449,3.562 L195.327,3.562 C198.711,3.562 201.775,4.748 201.775,8.624 C201.775,13.021 198.488,13.811 194.783,13.811 L192.56,13.811 L192.56,21.049 L189.449,21.049 z" fill="#002B52"/>
      <path d="M220.386,14.627 C220.386,18.85 217.348,21.493 213.347,21.493 C209.345,21.493 206.308,18.85 206.308,14.627 L206.308,3.563 L209.419,3.563 L209.419,14.528 C209.419,16.256 210.357,18.529 213.347,18.529 C216.337,18.529 217.274,16.256 217.274,14.528 L217.274,3.563 L220.386,3.563 z" fill="#002B52"/>
      <path d="M229.636,6.378 L224.276,6.378 L224.276,3.563 L238.108,3.563 L238.108,6.378 L232.747,6.378 L232.747,21.048 L229.636,21.048 z" fill="#002B52"/>
      <path d="M242.076,3.562 L253.658,3.562 L253.658,6.378 L245.187,6.378 L245.187,10.677 L253.215,10.677 L253.215,13.492 L245.187,13.492 L245.187,18.234 L254.105,18.234 L254.105,21.049 L242.076,21.049 z" fill="#002B52"/>
      <path d="M264.542,10.971 C266.297,10.971 268.347,10.824 268.347,8.552 C268.347,6.477 266.419,6.23 264.814,6.23 L262.121,6.23 L262.121,10.971 z M259.009,3.563 L265.086,3.563 C268.443,3.563 271.606,4.649 271.606,8.575 C271.606,11.094 270.15,12.947 267.557,13.317 L272.199,21.048 L268.443,21.048 L264.395,13.638 L262.121,13.638 L262.121,21.048 L259.009,21.048 z" fill="#002B52"/>
    </g>
  </g>
  <defs/>
</svg>
